<?xml version="1.0" encoding="UTF-8"?>
<!DOCTYPE svg PUBLIC "-//W3C//DTD SVG 1.1//EN" "http://www.w3.org/Graphics/SVG/1.1/DTD/svg11.dtd">
<!-- Creator: CorelDRAW 2021.5 -->
<svg xmlns="http://www.w3.org/2000/svg" xml:space="preserve" width="297mm" height="210mm" version="1.1" style="shape-rendering:geometricPrecision; text-rendering:geometricPrecision; image-rendering:optimizeQuality; fill-rule:evenodd; clip-rule:evenodd"
viewBox="0 0 29700 21000"
 xmlns:xlink="http://www.w3.org/1999/xlink"
 xmlns:xodm="http://www.corel.com/coreldraw/odm/2003">
 <defs>
  <style type="text/css">
   <![CDATA[
    .str0 {stroke:black;stroke-width:20;stroke-miterlimit:22.9256}
    .str1 {stroke:white;stroke-width:20;stroke-miterlimit:22.9256}
    .fil2 {fill:none}
    .fil0 {fill:black}
    .fil3 {fill:white}
    .fil1 {fill:url(#id1)}
   ]]>
  </style>
   <clipPath id="id0">
    <path d="M6979.87 8333.61l956.38 0 956.36 0 -2570.21 -2570.21 2570.21 -2570.22 -956.36 0 -956.37 0 -546.77 546.78 -2023.45 2023.44 2020.47 2020.46 549.74 549.75zm3309.61 -5645.86l0 -1378.75 1378.75 0 0 1378.75 0 6151.29 2360.05 0 0 -1313.06 1378.73 0 0 1313.06 0 1378.75 -3738.78 0 -1378.75 0 0 -1378.75 0 -6151.29zm3738.8 0l0 -1378.75 1378.73 0 3075.85 0 0 1378.75 -1378.74 0 -1697.11 0 0 2747.03 1697.11 0 0 1378.73 -1697.11 0 -1378.73 0 0 -4125.76zm7028.3 5645.86l-956.36 0 -956.38 0 2570.23 -2570.21 -2570.23 -2570.22 956.38 0 956.36 0 546.77 546.78 2023.44 2023.44 -2020.46 2020.46 -549.75 549.75z"/>
   </clipPath>
  <linearGradient id="id1" gradientUnits="userSpaceOnUse" x1="7218.61" y1="10808.78" x2="21050.89" y2="592.9">
   <stop offset="0" style="stop-opacity:1; stop-color:#07ADEF"/>
   <stop offset="0.34902" style="stop-opacity:1; stop-color:#396CD1"/>
   <stop offset="0.701961" style="stop-opacity:1; stop-color:#6149BD"/>
   <stop offset="1" style="stop-opacity:1; stop-color:#AC1993"/>
  </linearGradient>
 </defs>
 <g id="Camada_x0020_1">
  <metadata id="CorelCorpID_0Corel-Layer"/>
  <path class="fil0" d="M6979.87 8333.61l956.38 0 956.36 0 -2570.21 -2570.21 2570.21 -2570.22 -956.36 0 -956.37 0 -546.77 546.78 -2023.45 2023.44 2020.47 2020.46 549.74 549.75zm3309.61 -5645.86l0 -1378.75 1378.75 0 0 1378.75 0 6151.29 2360.05 0 0 -1313.06 1378.73 0 0 1313.06 0 1378.75 -3738.78 0 -1378.75 0 0 -1378.75 0 -6151.29zm3738.8 0l0 -1378.75 1378.73 0 3075.85 0 0 1378.75 -1378.74 0 -1697.11 0 0 2747.03 1697.11 0 0 1378.73 -1697.11 0 -1378.73 0 0 -4125.76zm7028.3 5645.86l-956.36 0 -956.38 0 2570.23 -2570.21 -2570.23 -2570.22 956.38 0 956.36 0 546.77 546.78 2023.44 2023.44 -2020.46 2020.46 -549.75 549.75z"/>
  <g style="clip-path:url(#id0)">
   <g id="_2731506713056">
    <rect class="fil1 str0" x="4409.66" y="906.56" width="19423.87" height="9588.56"/>
   </g>
  </g>
  <path class="fil2" d="M6979.87 8333.61l956.38 0 956.36 0 -2570.21 -2570.21 2570.21 -2570.22 -956.36 0 -956.37 0 -546.77 546.78 -2023.45 2023.44 2020.47 2020.46 549.74 549.75zm3309.61 -5645.86l0 -1378.75 1378.75 0 0 1378.75 0 6151.29 2360.05 0 0 -1313.06 1378.73 0 0 1313.06 0 1378.75 -3738.78 0 -1378.75 0 0 -1378.75 0 -6151.29zm3738.8 0l0 -1378.75 1378.73 0 3075.85 0 0 1378.75 -1378.74 0 -1697.11 0 0 2747.03 1697.11 0 0 1378.73 -1697.11 0 -1378.73 0 0 -4125.76zm7028.3 5645.86l-956.36 0 -956.38 0 2570.23 -2570.21 -2570.23 -2570.22 956.38 0 956.36 0 546.77 546.78 2023.44 2023.44 -2020.46 2020.46 -549.75 549.75z"/>
  <path class="fil3 str1" d="M20043.19 16318.35l2800.27 0c-213.65,-609.16 -729.24,-1033.96 -1400.7,-1033.96 -670.94,0 -1186.09,425.33 -1399.57,1033.96zm-2175.78 620.67l0 -167.35c-43.62,-832.24 -734.89,-1487.28 -1568.67,-1487.28 -865.96,0 -1570.95,705.01 -1570.95,1570.97 0,865.95 705,1570.95 1570.95,1570.95 833.8,0 1525.05,-655.03 1568.67,-1487.29zm-6695.42 -1654.63c-865.96,0 -1570.96,705.01 -1570.96,1570.97 0,865.95 705.01,1570.95 1570.96,1570.95 865.95,0 1570.97,-704.99 1570.97,-1570.95 0,-865.97 -705,-1570.97 -1570.97,-1570.97zm8787.27 1748.01c88.37,786.14 758.5,1393.91 1560.54,1393.91 416.94,0 812.53,-163.89 1108.33,-457.43l70.71 -70.17 504.74 504.77 -71.11 70.71c-429.85,427.35 -1006.28,666.18 -1612.67,666.18 -1259.77,0 -2285.02,-1025.17 -2285.02,-2285.01 0,-1248.82 937.69,-2285.03 2207.98,-2285.03 1092.79,0 1948.1,774.44 2162.25,1828.1 30.56,150.37 45.71,303.5 45.71,456.93 0,1.92 0,3.83 0,5.75 0,23.78 -1.16,47.53 -1.16,71.29l0 100 -3690.3 0zm-1377.79 -86.59l0 2169.26 -714.06 0 0 -600.04c-422.16,399.36 -979.72,625.34 -1568.67,625.34 -1260.4,0 -2285.01,-1024.61 -2285.01,-2285.01 0,-1260.41 1024.59,-2285.03 2285.01,-2285.03 589.45,0 1146.92,225.51 1568.67,625l0 -2295.96 714.06 0 0 3865.43c1.2,30.18 2.3,60.35 2.3,90.56 0,30.18 -1.14,60.3 -2.3,90.45zm-7409.48 2194.56c-1260.4,0 -2285.02,-1024.6 -2285.02,-2285.01 0,-1260.41 1024.61,-2285.03 2285.02,-2285.03 1260.42,0 2285.03,1024.61 2285.03,2285.03 0,1260.41 -1024.62,2285.01 -2285.03,2285.01zm-4491.94 -1.15c-606.88,0 -1185.8,-238.17 -1615.16,-667.55 -431.65,-431.67 -669.85,-1005.78 -669.85,-1616.31 0,-610.56 238.38,-1184.46 669.82,-1616.3 890.55,-891.38 2340.7,-890.86 3231.52,-0.03l70.71 70.71 -504.77 504.76 -70.71 -70.59c-612.61,-611.54 -1609.61,-612.35 -2221.91,-0.06 -297.13,297.13 -460.6,691.33 -460.6,1111.51 0,419.8 163.82,813.57 460.6,1110.35 612.71,612.71 1609.1,612.74 2221.85,0l70.82 -70.82 504.71 506.28 -70.79 70.6c-430.61,429.44 -1008.45,667.45 -1616.24,667.45z"/>
 </g>
</svg>
